<svg width="36" height="24" viewBox="0 0 36 24" fill="none" xmlns="http://www.w3.org/2000/svg">
<rect x="1" y="0.5" width="34" height="23" rx="3.5" fill="white" stroke="#E4EBF1"/>
<path d="M15.5 23L34.5 17.25V20C34.5 21.6569 33.1569 23 31.5 23H15.5Z" fill="#FD6020"/>
<path fill-rule="evenodd" clip-rule="evenodd" d="M30.8937 9.11084C31.939 9.11084 32.5139 9.59438 32.5139 10.5077C32.5662 11.2062 32.0958 11.7972 31.4686 11.9046L32.8797 13.8925H31.7822L30.5801 11.9584H30.4756V13.8925H29.5871V9.11084H30.8937ZM30.4756 11.3137H30.7369C31.3118 11.3137 31.5731 11.045 31.5731 10.5615C31.5731 10.1317 31.3118 9.86304 30.7369 9.86304H30.4756V11.3137ZM26.5034 13.8925H29.0122V13.0866H27.3919V11.7972H28.9599V10.9913H27.3919V9.91674H29.0122V9.11084H26.5034V13.8925ZM23.8902 12.3345L22.6881 9.11084H21.7474L23.6812 14H24.1515L26.0853 9.11084H25.1446L23.8902 12.3345ZM13.2805 11.5286C13.2805 12.8717 14.3258 14 15.6324 14C16.0505 14 16.4164 13.8925 16.7822 13.7314V12.6568C16.5209 12.9792 16.155 13.1941 15.7369 13.1941C14.9007 13.1941 14.2212 12.5494 14.2212 11.6897V11.5823C14.169 10.7227 14.8484 9.97048 15.6847 9.91675C16.1028 9.91675 16.5209 10.1317 16.7822 10.454V9.37948C16.4686 9.16458 16.0505 9.11085 15.6847 9.11085C14.3258 9.0034 13.2805 10.1317 13.2805 11.5286ZM11.6603 10.9376C11.1376 10.7227 10.9808 10.6152 10.9808 10.3466C11.0331 10.0242 11.2944 9.75557 11.608 9.8093C11.8693 9.8093 12.1306 9.97048 12.3397 10.1854L12.8101 9.54066C12.4442 9.2183 11.9739 9.00339 11.5035 9.00339C10.7718 8.94967 10.1446 9.54066 10.0923 10.2928V10.3466C10.0923 10.9913 10.3536 11.3674 11.1899 11.636C11.3989 11.6897 11.608 11.7972 11.8171 11.9046C11.9739 12.0121 12.0784 12.1733 12.0784 12.3882C12.0784 12.7643 11.7648 13.0866 11.4512 13.0866H11.3989C10.9808 13.0866 10.615 12.818 10.4582 12.4419L9.88326 13.0329C10.1969 13.6239 10.824 13.9463 11.4512 13.9463C12.2874 14 12.9669 13.3553 13.0191 12.4956V12.3345C12.9669 11.6897 12.7056 11.3674 11.6603 10.9376ZM8.62892 13.8925H9.51742V9.11084H8.62892V13.8925ZM4.5 9.11086H5.80662H6.06794C7.3223 9.16458 8.31532 10.2391 8.26306 11.5286C8.26306 12.227 7.94947 12.8717 7.42682 13.3553C6.95644 13.7314 6.38153 13.9463 5.80662 13.8926H4.5V9.11086ZM5.64983 13.0866C6.06794 13.1404 6.53833 12.9792 6.85191 12.7105C7.1655 12.3882 7.3223 11.9584 7.3223 11.4748C7.3223 11.045 7.1655 10.6152 6.85191 10.2928C6.53833 10.0242 6.06794 9.86302 5.64983 9.91674H5.3885V13.0866H5.64983Z" fill="black"/>
<path fill-rule="evenodd" clip-rule="evenodd" d="M19.4478 9C18.1411 9 17.0436 10.0745 17.0436 11.4714C17.0436 12.8146 18.0889 13.9429 19.4478 13.9966C20.8066 14.0503 21.8519 12.9221 21.9042 11.5252C21.8519 10.1283 20.8066 9 19.4478 9V9Z" fill="#FD6020"/>
</svg>
