<svg width="36" height="24" viewBox="0 0 36 24" fill="none" xmlns="http://www.w3.org/2000/svg">
<rect x="1" y="0.5" width="34" height="23" rx="3.5" fill="white" stroke="#E4EBF1"/>
<path fill-rule="evenodd" clip-rule="evenodd" d="M10.4 15.241H8.84439C8.73794 15.241 8.6474 15.3183 8.6308 15.4234L8.00163 19.4125C7.98913 19.4912 8.05009 19.5621 8.12993 19.5621H8.87259C8.97905 19.5621 9.06958 19.4848 9.08618 19.3795L9.25588 18.3036C9.27225 18.1982 9.363 18.121 9.46924 18.121H9.96169C10.9864 18.121 11.5778 17.6251 11.7323 16.6424C11.8019 16.2125 11.7353 15.8748 11.5339 15.6381C11.3129 15.3784 10.9206 15.241 10.4 15.241ZM10.5795 16.6979C10.4944 17.2561 10.0679 17.2561 9.65553 17.2561H9.42078L9.58547 16.2136C9.59525 16.1507 9.64984 16.1042 9.71353 16.1042H9.82112C10.102 16.1042 10.3671 16.1042 10.504 16.2643C10.5856 16.3599 10.6106 16.5018 10.5795 16.6979ZM15.0501 16.68H14.3052C14.2417 16.68 14.1869 16.7264 14.1771 16.7895L14.1441 16.9978L14.092 16.9223C13.9308 16.6882 13.5712 16.61 13.2122 16.61C12.389 16.61 11.6859 17.2335 11.549 18.1081C11.4778 18.5443 11.579 18.9615 11.8264 19.2524C12.0535 19.5199 12.3783 19.6314 12.7647 19.6314C13.428 19.6314 13.7959 19.2049 13.7959 19.2049L13.7626 19.4119C13.7501 19.4911 13.8111 19.562 13.8904 19.562H14.5615C14.6682 19.562 14.7582 19.4847 14.7751 19.3794L15.1777 16.8297C15.1904 16.7513 15.1297 16.68 15.0501 16.68ZM14.0117 18.1299C13.9398 18.5555 13.602 18.8412 13.1713 18.8412C12.955 18.8412 12.782 18.7718 12.6711 18.6403C12.561 18.5098 12.5191 18.3239 12.5541 18.117C12.6213 17.695 12.9647 17.4 13.389 17.4C13.6004 17.4 13.7724 17.4702 13.8857 17.6029C13.9992 17.7369 14.0442 17.9238 14.0117 18.1299ZM18.269 16.6799H19.0176C19.1224 16.6799 19.1836 16.7975 19.124 16.8835L16.6342 20.4774C16.5939 20.5356 16.5275 20.5702 16.4565 20.5702H15.7089C15.6036 20.5702 15.5421 20.4517 15.6031 20.3655L16.3783 19.2712L15.5538 16.8514C15.5253 16.7673 15.5874 16.6799 15.6769 16.6799H16.4124C16.508 16.6799 16.5923 16.7427 16.6199 16.8341L17.0575 18.2956L18.09 16.7748C18.1304 16.7154 18.1976 16.6799 18.269 16.6799Z" fill="#253B80"/>
<path fill-rule="evenodd" clip-rule="evenodd" d="M26.3854 19.4124L27.0238 15.3504C27.0336 15.2874 27.0882 15.2409 27.1517 15.2407H27.8705C27.9498 15.2407 28.0108 15.3119 27.9982 15.3906L27.3687 19.3795C27.3522 19.4847 27.2617 19.5621 27.1551 19.5621H26.5132C26.4338 19.5621 26.3729 19.4912 26.3854 19.4124ZM21.496 15.2409H19.9401C19.8339 15.2409 19.7434 15.3183 19.7267 15.4234L19.0976 19.4124C19.0851 19.4912 19.146 19.5621 19.2255 19.5621H20.0238C20.098 19.5621 20.1615 19.508 20.1731 19.4343L20.3516 18.3036C20.368 18.1982 20.4587 18.1209 20.565 18.1209H21.0572C22.0821 18.1209 22.6734 17.625 22.828 16.6424C22.8978 16.2125 22.8308 15.8747 22.6295 15.6381C22.4085 15.3784 22.0166 15.2409 21.496 15.2409ZM21.6755 16.6979C21.5906 17.2561 21.1641 17.2561 20.7515 17.2561H20.517L20.6819 16.2136C20.6917 16.1506 20.7458 16.1042 20.8097 16.1042H20.9173C21.198 16.1042 21.4633 16.1042 21.6001 16.2643C21.6818 16.3599 21.7066 16.5018 21.6755 16.6979ZM26.1457 16.68H25.4013C25.3373 16.68 25.283 16.7264 25.2734 16.7895L25.2404 16.9978L25.1881 16.9223C25.0269 16.6882 24.6675 16.61 24.3085 16.61C23.4853 16.61 22.7824 17.2335 22.6455 18.1081C22.5745 18.5443 22.6753 18.9615 22.9228 19.2524C23.1502 19.5199 23.4746 19.6314 23.8611 19.6314C24.5243 19.6314 24.8921 19.2048 24.8921 19.2048L24.859 19.4119C24.8464 19.491 24.9074 19.562 24.9873 19.562H25.658C25.7642 19.562 25.8548 19.4846 25.8714 19.3794L26.2742 16.8297C26.2865 16.7513 26.2256 16.68 26.1457 16.68ZM25.1074 18.1299C25.0359 18.5555 24.6977 18.8412 24.2669 18.8412C24.051 18.8412 23.8777 18.7718 23.7666 18.6403C23.6565 18.5098 23.6152 18.3239 23.6498 18.1169C23.7173 17.6949 24.0603 17.4 24.4845 17.4C24.6961 17.4 24.868 17.4702 24.9814 17.6028C25.0953 17.7368 25.1403 17.9238 25.1074 18.1299Z" fill="#179BD7"/>
<path d="M16.157 13.8138L16.3483 12.5991L15.9223 12.5892H13.8881L15.3017 3.62534C15.3061 3.59828 15.3204 3.57305 15.3412 3.55513C15.3621 3.53722 15.3888 3.52734 15.4166 3.52734H18.8466C19.9853 3.52734 20.7711 3.7643 21.1814 4.232C21.3738 4.45141 21.4963 4.68068 21.5556 4.933C21.6177 5.19776 21.6188 5.51406 21.5581 5.89985L21.5537 5.92801V6.1752L21.7461 6.28418C21.9081 6.37011 22.0367 6.46848 22.1354 6.58111C22.3001 6.7687 22.4065 7.00712 22.4515 7.28978C22.4979 7.5805 22.4825 7.92643 22.4065 8.31807C22.3187 8.76859 22.1768 9.16096 21.9852 9.48202C21.8089 9.77785 21.5844 10.0232 21.3179 10.2134C21.0633 10.394 20.7609 10.5312 20.419 10.619C20.0877 10.7052 19.71 10.7488 19.2957 10.7488H19.0287C18.8379 10.7488 18.6524 10.8175 18.5069 10.9408C18.361 11.0665 18.2644 11.2383 18.2348 11.4263L18.2147 11.5357L17.8768 13.6767L17.8614 13.7553C17.8574 13.7802 17.8505 13.7927 17.8403 13.8011C17.8311 13.8087 17.818 13.8138 17.8051 13.8138H16.157Z" fill="#253B80"/>
<path d="M21.9281 5.95654C21.9179 6.022 21.9062 6.08891 21.8931 6.15766C21.4407 8.48007 19.8932 9.28237 17.9166 9.28237H16.9103C16.6686 9.28237 16.465 9.45789 16.4273 9.69631L15.912 12.964L15.7661 13.8902C15.7416 14.0468 15.8623 14.1879 16.0202 14.1879H17.8052C18.0165 14.1879 18.196 14.0344 18.2293 13.8259L18.2469 13.7352L18.583 11.6026L18.6045 11.4856C18.6374 11.2764 18.8173 11.1229 19.0286 11.1229H19.2956C21.0249 11.1229 22.3787 10.4208 22.7743 8.38902C22.9396 7.54028 22.854 6.83161 22.4167 6.33319C22.2843 6.18289 22.1201 6.0582 21.9281 5.95654Z" fill="#179BD7"/>
<path d="M21.4548 5.76807C21.3858 5.74796 21.3144 5.72967 21.2412 5.71322C21.1678 5.69713 21.0924 5.68287 21.0149 5.67044C20.7436 5.62656 20.4463 5.60571 20.1278 5.60571H17.4393C17.3731 5.60571 17.3103 5.6207 17.254 5.64777C17.13 5.70737 17.0379 5.82476 17.0155 5.96846L16.4435 9.59086L16.4271 9.69653C16.4648 9.45811 16.6685 9.28258 16.9102 9.28258H17.9165C19.893 9.28258 21.4406 8.47993 21.8929 6.15788C21.9064 6.08914 21.9178 6.02222 21.928 5.95677C21.8136 5.89606 21.6896 5.84413 21.5561 5.79988C21.5232 5.78891 21.4892 5.77831 21.4548 5.76807Z" fill="#222D65"/>
<path d="M17.0156 5.96842C17.0379 5.8247 17.1301 5.70732 17.254 5.64808C17.3107 5.62102 17.3733 5.60603 17.4394 5.60603H20.1279C20.4464 5.60603 20.7437 5.62687 21.0149 5.67076C21.0925 5.68319 21.1679 5.69745 21.2414 5.71354C21.3145 5.73 21.3858 5.74828 21.4549 5.76839C21.4893 5.77863 21.5233 5.78923 21.5565 5.79984C21.69 5.84408 21.814 5.89638 21.9284 5.95672C22.0631 5.09847 21.9274 4.51412 21.4634 3.98498C20.9518 3.40247 20.0284 3.15308 18.8469 3.15308H15.4168C15.1755 3.15308 14.9697 3.32859 14.9323 3.56738L13.5037 12.6234C13.4755 12.8025 13.6137 12.9642 13.7943 12.9642H15.912L16.4437 9.59081L17.0156 5.96842Z" fill="#253B80"/>
</svg>
