<svg width="1105" height="284" viewBox="0 0 1105 284" fill="none" xmlns="http://www.w3.org/2000/svg">
<path d="M146.936 104.21C146.936 152.609 113.44 185.925 61.1948 185.925H0L0 22.4951H61.28C113.44 22.4951 146.936 55.556 146.936 104.21ZM58.7231 151.501C88.8091 151.501 106.452 134.289 106.452 104.21C106.452 74.1314 88.7239 56.4933 58.7231 56.4933H39.8022V151.501H58.7231Z" fill="url(#paint0_linear_2190_65471)"/>
<path d="M243.33 187.629C196.965 187.629 159.294 152.949 159.294 103.784C159.294 54.6187 197.05 20.1944 243.33 20.1944C289.951 20.1944 326.94 54.6187 326.94 103.784C326.94 152.864 289.61 187.629 243.33 187.629ZM243.33 151.245C269.41 151.245 286.456 132.414 286.456 103.784C286.456 74.6427 269.496 56.3229 243.33 56.3229C216.738 56.3229 200.033 74.7279 200.033 103.784C199.948 132.414 216.738 151.245 243.33 151.245Z" fill="url(#paint1_linear_2190_65471)"/>
<path d="M424.443 20.6205C463.307 20.6205 492.711 42.5191 502.001 77.8806H458.194C451.46 63.9064 439.102 56.9193 423.931 56.9193C399.47 56.9193 382.68 75.0687 382.68 103.954C382.68 132.84 399.47 150.99 423.931 150.99C439.102 150.99 451.375 144.002 458.194 130.028H502.001C492.711 165.39 463.307 187.033 424.443 187.033C376.203 187.033 342.196 152.779 342.196 103.869C342.281 55.1299 376.288 20.6205 424.443 20.6205Z" fill="url(#paint2_linear_2190_65471)"/>
<path d="M595.243 20.6205C634.107 20.6205 663.511 42.5191 672.801 77.8806H628.993C622.26 63.9064 609.902 56.9193 594.731 56.9193C570.27 56.9193 553.48 75.0687 553.48 103.954C553.48 132.84 570.27 150.99 594.731 150.99C609.902 150.99 622.175 144.002 628.993 130.028H672.801C663.511 165.39 634.107 187.033 595.243 187.033C547.003 187.033 512.996 152.779 512.996 103.869C513.081 55.1299 547.088 20.6205 595.243 20.6205Z" fill="url(#paint3_linear_2190_65471)"/>
<path d="M1093.49 54.4483H1033.15V87.5092H1086.51V118.269H1033.15V154.142H1093.49V186.01H993.349V22.4951L1093.49 22.4951V54.4483Z" fill="url(#paint4_linear_2190_65471)"/>
<path d="M935.223 185.925H981.417L935.393 121.167C960.536 113.753 971.701 94.4111 971.701 73.8758C971.701 45.5014 951.672 22.4098 911.614 22.4098H844.794V185.84H884.597V131.221H898.063L935.223 185.925ZM884.597 55.556H909.313C924.228 55.556 931.217 63.4804 931.217 75.58C931.217 88.3613 924.228 96.03 909.313 96.03H884.597V55.556Z" fill="url(#paint5_linear_2190_65471)"/>
<path d="M1067.33 263.209C1076.13 263.209 1083.27 256.075 1083.27 247.275C1083.27 238.475 1076.13 231.341 1067.33 231.341C1058.53 231.341 1051.39 238.475 1051.39 247.275C1051.39 256.075 1058.53 263.209 1067.33 263.209Z" fill="url(#paint6_linear_2190_65471)"/>
<path d="M1067.16 208.761C1055.23 208.761 1044.66 214.299 1037.75 222.991L988.406 222.224V236.794H803.288C800.731 236.794 798.174 235.942 798.174 235.942V235.857C777.293 228.785 770.901 214.64 768.94 206.971C779.85 203.478 789.395 193.849 789.651 180.131C808.657 170.247 821.782 150.223 821.782 119.974V75.0687H821.697L814.964 68.6781L813.43 30.7603L804.225 20.7909C804.31 20.1092 804.396 19.3423 804.396 18.6607C804.396 8.35043 795.958 0 785.56 0C775.162 0 766.724 8.35043 766.724 18.6607C766.724 28.9709 775.162 37.3213 785.56 37.3213C786.327 37.3213 787.094 37.2361 787.776 37.1509L790.844 42.9451V68.7633L785.56 75.0687H785.304V120.314C785.304 139.657 776.099 150.819 758.798 150.819C741.496 150.819 732.718 139.657 732.718 120.314V75.0687H732.547L727.348 68.7633V42.9451L730.331 37.1509C731.098 37.2361 731.78 37.3213 732.547 37.3213C742.86 37.3213 751.212 28.9709 751.212 18.6607C751.212 8.35043 742.86 0 732.547 0C722.234 0 713.882 8.35043 713.882 18.6607C713.882 19.4275 713.967 20.1092 714.052 20.7909L704.933 30.7603L703.399 68.6781L696.751 75.0687H696.24V120.059C696.24 152.182 709.961 172.803 730.502 182.005C731.951 195.468 740.9 204.245 751.383 207.312C755.048 237.561 784.111 252.899 794.083 254.773C794.083 254.773 796.214 255.455 799.452 255.711H988.662V270.537H1038.61C1045.51 278.717 1055.82 284 1067.41 284C1088.21 284 1105 267.214 1105 246.423C1104.74 225.632 1087.95 208.761 1067.16 208.761ZM759.735 199.218C749.849 199.218 742.519 193.849 739.11 185.158C745.076 186.777 751.383 187.629 758.031 187.629C766.042 187.629 773.713 186.436 780.787 184.05H780.702C777.378 193.253 769.963 199.218 759.735 199.218ZM1067.16 273.519C1052.16 273.519 1039.97 261.335 1039.97 246.338C1039.97 231.341 1052.16 219.156 1067.16 219.156C1082.16 219.156 1094.35 231.341 1094.35 246.338C1094.35 261.335 1082.16 273.519 1067.16 273.519Z" fill="url(#paint7_linear_2190_65471)"/>
<defs>
<linearGradient id="paint0_linear_2190_65471" x1="2.45782e-06" y1="182.91" x2="1109.49" y2="189.123" gradientUnits="userSpaceOnUse">
<stop stop-color="#0E82FD"/>
<stop offset="0.7" stop-color="#06AED4"/>
</linearGradient>
<linearGradient id="paint1_linear_2190_65471" x1="2.45782e-06" y1="182.91" x2="1109.49" y2="189.123" gradientUnits="userSpaceOnUse">
<stop stop-color="#0E82FD"/>
<stop offset="0.7" stop-color="#06AED4"/>
</linearGradient>
<linearGradient id="paint2_linear_2190_65471" x1="2.45782e-06" y1="182.91" x2="1109.49" y2="189.123" gradientUnits="userSpaceOnUse">
<stop stop-color="#0E82FD"/>
<stop offset="0.7" stop-color="#06AED4"/>
</linearGradient>
<linearGradient id="paint3_linear_2190_65471" x1="2.45782e-06" y1="182.91" x2="1109.49" y2="189.123" gradientUnits="userSpaceOnUse">
<stop stop-color="#0E82FD"/>
<stop offset="0.7" stop-color="#06AED4"/>
</linearGradient>
<linearGradient id="paint4_linear_2190_65471" x1="2.45782e-06" y1="182.91" x2="1109.49" y2="189.123" gradientUnits="userSpaceOnUse">
<stop stop-color="#0E82FD"/>
<stop offset="0.7" stop-color="#06AED4"/>
</linearGradient>
<linearGradient id="paint5_linear_2190_65471" x1="2.45782e-06" y1="182.91" x2="1109.49" y2="189.123" gradientUnits="userSpaceOnUse">
<stop stop-color="#0E82FD"/>
<stop offset="0.7" stop-color="#06AED4"/>
</linearGradient>
<linearGradient id="paint6_linear_2190_65471" x1="2.45782e-06" y1="182.91" x2="1109.49" y2="189.123" gradientUnits="userSpaceOnUse">
<stop stop-color="#0E82FD"/>
<stop offset="0.7" stop-color="#06AED4"/>
</linearGradient>
<linearGradient id="paint7_linear_2190_65471" x1="2.45782e-06" y1="182.91" x2="1109.49" y2="189.123" gradientUnits="userSpaceOnUse">
<stop stop-color="#0E82FD"/>
<stop offset="0.7" stop-color="#06AED4"/>
</linearGradient>
</defs>
</svg>
