<svg width="36" height="24" viewBox="0 0 36 24" fill="none" xmlns="http://www.w3.org/2000/svg">
<rect x="1" y="0.5" width="34" height="23" rx="3.5" fill="white" stroke="#E4EBF1"/>
<path fill-rule="evenodd" clip-rule="evenodd" d="M19.3055 8.14192L17.5275 8.52349V7.08202L19.3055 6.70752V8.14192ZM12.0803 7.52718L10.352 7.89461L10.3449 13.5545C10.3449 14.6003 11.1312 15.3705 12.1795 15.3705C12.7603 15.3705 13.1853 15.2645 13.4191 15.1373V13.7029C13.1924 13.7948 12.0733 14.1198 12.0733 13.074V10.5656H13.4191V9.06051H12.0733L12.0803 7.52718ZM7.89418 10.4737C7.51876 10.4737 7.29209 10.5797 7.29209 10.8553C7.29209 11.1562 7.68219 11.2885 8.16615 11.4527C8.95512 11.7204 9.99355 12.0728 9.99794 13.3779C9.99794 14.6427 8.98502 15.3705 7.51168 15.3705C6.90251 15.3705 6.23667 15.2504 5.57792 14.9677V13.286C6.17292 13.611 6.92376 13.8513 7.51168 13.8513C7.90834 13.8513 8.19168 13.7453 8.19168 13.4203C8.19168 13.087 7.76881 12.9346 7.25828 12.7507C6.48078 12.4706 5.5 12.1173 5.5 10.9401C5.5 9.68939 6.45625 8.94039 7.89418 8.94039C8.4821 8.94039 9.06293 9.03225 9.65085 9.26543V10.9259C9.11252 10.6362 8.43251 10.4737 7.89418 10.4737ZM28.4429 8.94039C30.1217 8.94039 31 10.3677 31 12.1766C31 12.2743 30.9953 12.4377 30.9913 12.5762V12.5762V12.5762V12.5762V12.5763C30.9884 12.6782 30.9858 12.7666 30.9858 12.8055H27.5221C27.6 13.6393 28.2092 13.8796 28.8962 13.8796C29.5975 13.8796 30.15 13.7312 30.6317 13.4909V14.9041C30.15 15.1726 29.5125 15.3634 28.6696 15.3634C26.9412 15.3634 25.7371 14.2894 25.7371 12.1625C25.7371 10.3677 26.7571 8.94039 28.4429 8.94039ZM28.4358 10.3748C27.9895 10.3748 27.5008 10.7069 27.5008 11.5054H29.3283C29.3283 10.7069 28.8679 10.3748 28.4358 10.3748ZM15.6221 9.58341L15.5088 9.06052H13.9788V15.2433H15.7496V11.0531C16.1676 10.5091 16.8759 10.608 17.0955 10.6857V9.06052C16.8688 8.97573 16.0401 8.82028 15.6221 9.58341ZM17.5274 9.06052H19.3053V15.2433H17.5274V9.06052ZM23.0028 8.94039C22.3086 8.94039 21.8624 9.26543 21.6145 9.49154L21.5224 9.05345H19.9641V17.2925L21.7349 16.918L21.742 14.9183C21.997 15.102 22.3724 15.3634 22.9957 15.3634C24.2637 15.3634 25.4182 14.3459 25.4182 12.106C25.4112 10.0568 24.2424 8.94039 23.0028 8.94039ZM22.5778 13.8089C22.1599 13.8089 21.912 13.6605 21.742 13.4768L21.7349 10.8553C21.919 10.6504 22.174 10.509 22.5778 10.509C23.2224 10.509 23.6686 11.2298 23.6686 12.1554C23.6686 13.1023 23.2295 13.8089 22.5778 13.8089Z" fill="#6461FC"/>
</svg>
